<mxfile host="app.diagrams.net" agent="Mozilla/5.0 (Macintosh; Intel Mac OS X 10_15_7) AppleWebKit/605.1.15 (KHTML, like Gecko) Version/18.4 Safari/605.1.15" version="26.2.14">
  <diagram name="Page-1" id="ejzalj61xhWo_g-6xtnn">
    <mxGraphModel dx="774" dy="1066" grid="1" gridSize="10" guides="1" tooltips="1" connect="1" arrows="1" fold="1" page="1" pageScale="1" pageWidth="850" pageHeight="1100" math="0" shadow="0">
      <root>
        <mxCell id="0" />
        <mxCell id="1" parent="0" />
        <mxCell id="AdYJ6fqc3Zaq_6f0o8oP-5" value="AWS Account" style="points=[[0,0],[0.25,0],[0.5,0],[0.75,0],[1,0],[1,0.25],[1,0.5],[1,0.75],[1,1],[0.75,1],[0.5,1],[0.25,1],[0,1],[0,0.75],[0,0.5],[0,0.25]];outlineConnect=0;gradientColor=none;html=1;whiteSpace=wrap;fontSize=12;fontStyle=0;container=1;pointerEvents=0;collapsible=0;recursiveResize=0;shape=mxgraph.aws4.group;grIcon=mxgraph.aws4.group_account;strokeColor=#CD2264;fillColor=none;verticalAlign=top;align=left;spacingLeft=30;fontColor=#CD2264;dashed=0;" vertex="1" parent="1">
          <mxGeometry x="40" y="80" width="680" height="520" as="geometry" />
        </mxCell>
        <mxCell id="AdYJ6fqc3Zaq_6f0o8oP-6" value="" style="sketch=0;points=[[0,0,0],[0.25,0,0],[0.5,0,0],[0.75,0,0],[1,0,0],[0,1,0],[0.25,1,0],[0.5,1,0],[0.75,1,0],[1,1,0],[0,0.25,0],[0,0.5,0],[0,0.75,0],[1,0.25,0],[1,0.5,0],[1,0.75,0]];outlineConnect=0;fontColor=#232F3E;fillColor=#DD344C;strokeColor=#ffffff;dashed=0;verticalLabelPosition=bottom;verticalAlign=top;align=center;html=1;fontSize=12;fontStyle=0;aspect=fixed;shape=mxgraph.aws4.resourceIcon;resIcon=mxgraph.aws4.identity_and_access_management;" vertex="1" parent="AdYJ6fqc3Zaq_6f0o8oP-5">
          <mxGeometry x="301" y="20" width="78" height="78" as="geometry" />
        </mxCell>
        <mxCell id="AdYJ6fqc3Zaq_6f0o8oP-7" value="" style="sketch=0;outlineConnect=0;fontColor=#232F3E;gradientColor=none;fillColor=#DD344C;strokeColor=none;dashed=0;verticalLabelPosition=bottom;verticalAlign=top;align=center;html=1;fontSize=12;fontStyle=0;aspect=fixed;pointerEvents=1;shape=mxgraph.aws4.organizations_organizational_unit;" vertex="1" parent="AdYJ6fqc3Zaq_6f0o8oP-5">
          <mxGeometry x="385" y="160" width="78" height="67" as="geometry" />
        </mxCell>
        <mxCell id="AdYJ6fqc3Zaq_6f0o8oP-8" value="" style="sketch=0;outlineConnect=0;fontColor=#232F3E;gradientColor=none;fillColor=#DD344C;strokeColor=none;dashed=0;verticalLabelPosition=bottom;verticalAlign=top;align=center;html=1;fontSize=12;fontStyle=0;aspect=fixed;pointerEvents=1;shape=mxgraph.aws4.organizations_organizational_unit;" vertex="1" parent="AdYJ6fqc3Zaq_6f0o8oP-5">
          <mxGeometry x="550" y="160" width="78" height="67" as="geometry" />
        </mxCell>
        <mxCell id="AdYJ6fqc3Zaq_6f0o8oP-9" value="" style="sketch=0;outlineConnect=0;fontColor=#232F3E;gradientColor=none;fillColor=#DD344C;strokeColor=none;dashed=0;verticalLabelPosition=bottom;verticalAlign=top;align=center;html=1;fontSize=12;fontStyle=0;aspect=fixed;pointerEvents=1;shape=mxgraph.aws4.organizations_organizational_unit;" vertex="1" parent="AdYJ6fqc3Zaq_6f0o8oP-5">
          <mxGeometry x="210" y="160" width="78" height="67" as="geometry" />
        </mxCell>
        <mxCell id="AdYJ6fqc3Zaq_6f0o8oP-10" value="Dev" style="text;html=1;align=center;verticalAlign=middle;resizable=0;points=[];autosize=1;strokeColor=none;fillColor=none;" vertex="1" parent="AdYJ6fqc3Zaq_6f0o8oP-5">
          <mxGeometry x="225" y="227" width="40" height="30" as="geometry" />
        </mxCell>
        <mxCell id="AdYJ6fqc3Zaq_6f0o8oP-11" value="DevOps" style="text;html=1;align=center;verticalAlign=middle;resizable=0;points=[];autosize=1;strokeColor=none;fillColor=none;" vertex="1" parent="AdYJ6fqc3Zaq_6f0o8oP-5">
          <mxGeometry x="389" y="227" width="70" height="30" as="geometry" />
        </mxCell>
        <mxCell id="AdYJ6fqc3Zaq_6f0o8oP-12" value="Auditor" style="text;html=1;align=center;verticalAlign=middle;resizable=0;points=[];autosize=1;strokeColor=none;fillColor=none;" vertex="1" parent="AdYJ6fqc3Zaq_6f0o8oP-5">
          <mxGeometry x="559" y="227" width="60" height="30" as="geometry" />
        </mxCell>
        <mxCell id="AdYJ6fqc3Zaq_6f0o8oP-13" value="" style="sketch=0;outlineConnect=0;fontColor=#232F3E;gradientColor=none;fillColor=#DD344C;strokeColor=none;dashed=0;verticalLabelPosition=bottom;verticalAlign=top;align=center;html=1;fontSize=12;fontStyle=0;aspect=fixed;pointerEvents=1;shape=mxgraph.aws4.permissions;" vertex="1" parent="AdYJ6fqc3Zaq_6f0o8oP-5">
          <mxGeometry x="288" y="150" width="22.26" height="28" as="geometry" />
        </mxCell>
        <mxCell id="AdYJ6fqc3Zaq_6f0o8oP-15" value="" style="sketch=0;outlineConnect=0;fontColor=#232F3E;gradientColor=none;fillColor=#DD344C;strokeColor=none;dashed=0;verticalLabelPosition=bottom;verticalAlign=top;align=center;html=1;fontSize=12;fontStyle=0;aspect=fixed;pointerEvents=1;shape=mxgraph.aws4.permissions;" vertex="1" parent="AdYJ6fqc3Zaq_6f0o8oP-5">
          <mxGeometry x="628" y="150" width="22.26" height="28" as="geometry" />
        </mxCell>
        <mxCell id="AdYJ6fqc3Zaq_6f0o8oP-14" value="" style="sketch=0;outlineConnect=0;fontColor=#232F3E;gradientColor=none;fillColor=#DD344C;strokeColor=none;dashed=0;verticalLabelPosition=bottom;verticalAlign=top;align=center;html=1;fontSize=12;fontStyle=0;aspect=fixed;pointerEvents=1;shape=mxgraph.aws4.permissions;" vertex="1" parent="AdYJ6fqc3Zaq_6f0o8oP-5">
          <mxGeometry x="463" y="150" width="22.26" height="28" as="geometry" />
        </mxCell>
        <mxCell id="AdYJ6fqc3Zaq_6f0o8oP-16" value="" style="sketch=0;outlineConnect=0;fontColor=#232F3E;gradientColor=none;fillColor=#DD344C;strokeColor=none;dashed=0;verticalLabelPosition=bottom;verticalAlign=top;align=center;html=1;fontSize=12;fontStyle=0;aspect=fixed;pointerEvents=1;shape=mxgraph.aws4.organizations_organizational_unit;" vertex="1" parent="AdYJ6fqc3Zaq_6f0o8oP-5">
          <mxGeometry x="60" y="160" width="78" height="67" as="geometry" />
        </mxCell>
        <mxCell id="AdYJ6fqc3Zaq_6f0o8oP-17" value="Admins" style="text;html=1;align=center;verticalAlign=middle;resizable=0;points=[];autosize=1;strokeColor=none;fillColor=none;" vertex="1" parent="AdYJ6fqc3Zaq_6f0o8oP-5">
          <mxGeometry x="65" y="227" width="60" height="30" as="geometry" />
        </mxCell>
        <mxCell id="AdYJ6fqc3Zaq_6f0o8oP-18" value="" style="sketch=0;outlineConnect=0;fontColor=#232F3E;gradientColor=none;fillColor=#DD344C;strokeColor=none;dashed=0;verticalLabelPosition=bottom;verticalAlign=top;align=center;html=1;fontSize=12;fontStyle=0;aspect=fixed;pointerEvents=1;shape=mxgraph.aws4.permissions;" vertex="1" parent="AdYJ6fqc3Zaq_6f0o8oP-5">
          <mxGeometry x="138" y="150" width="22.26" height="28" as="geometry" />
        </mxCell>
      </root>
    </mxGraphModel>
  </diagram>
</mxfile>
